<svg xmlns="http://www.w3.org/2000/svg" xmlns:xlink="http://www.w3.org/1999/xlink" width="2743" height="1774" viewBox="0 0 2743 1774"><defs><path id="gb7ta" d="M1905.322 998.469c75.148-18.24 92.248-268.318 304.81-211.81 212.562 56.51 223.825 181.893 140.82 329.983-124.932 222.887-185.63 484.186-386.052 532.826-200.419 48.639-352.525-111.055-339.736-356.687 12.788-245.63 79.737-245.673 280.158-294.312z"/><path id="gb7tb" d="M-154.464 2116.575c63.905-29.736-8.19-193.682 210.653-208.703 218.843-15.022 273.554 62.405 248.04 177.023-38.404 172.51-3.16 354.116-173.598 433.42-170.436 79.302-369.048 13.83-443.612-146.236-74.563-160.066-11.921-176.2 158.517-255.504z"/></defs><g><g transform="translate(344 -778)"><use fill="#2eb1e3" xlink:href="#gb7ta"/></g><g transform="translate(344 -778)"><use fill="#2eb1e3" xlink:href="#gb7tb"/></g></g></svg>